<mxfile host="Electron" agent="Mozilla/5.0 (Windows NT 10.0; Win64; x64) AppleWebKit/537.36 (KHTML, like Gecko) draw.io/24.7.17 Chrome/128.0.6613.36 Electron/32.0.1 Safari/537.36" version="24.7.17">
  <diagram name="Page-1" id="0hoYuu6_5l6kWjDT8F1I">
    <mxGraphModel dx="864" dy="626" grid="1" gridSize="10" guides="1" tooltips="1" connect="1" arrows="1" fold="1" page="1" pageScale="1" pageWidth="980" pageHeight="690" math="0" shadow="0">
      <root>
        <mxCell id="0" />
        <mxCell id="1" parent="0" />
        <mxCell id="2EYARn85MEnVgVYHFnFr-1" value="1" style="ellipse;whiteSpace=wrap;html=1;aspect=fixed;fontSize=16;fontFamily=consolas;fillColor=#f8cecc;strokeColor=#FF3333;fontColor=#FF3333;" vertex="1" parent="1">
          <mxGeometry x="120" y="40" width="40" height="40" as="geometry" />
        </mxCell>
        <mxCell id="2EYARn85MEnVgVYHFnFr-3" value="5" style="ellipse;whiteSpace=wrap;html=1;aspect=fixed;fontSize=16;fontFamily=consolas;fillColor=#f8cecc;strokeColor=#FF3333;fontColor=#FF3333;" vertex="1" parent="1">
          <mxGeometry x="360" y="40" width="40" height="40" as="geometry" />
        </mxCell>
        <mxCell id="2EYARn85MEnVgVYHFnFr-4" value="1" style="ellipse;whiteSpace=wrap;html=1;aspect=fixed;fontSize=16;fontFamily=Aptos;" vertex="1" parent="1">
          <mxGeometry x="740" y="770" width="40" height="40" as="geometry" />
        </mxCell>
        <mxCell id="2EYARn85MEnVgVYHFnFr-5" value="1" style="ellipse;whiteSpace=wrap;html=1;aspect=fixed;fontSize=16;fontFamily=Aptos;" vertex="1" parent="1">
          <mxGeometry x="680" y="770" width="40" height="40" as="geometry" />
        </mxCell>
        <mxCell id="2EYARn85MEnVgVYHFnFr-6" value="3" style="ellipse;whiteSpace=wrap;html=1;aspect=fixed;fontSize=16;fontFamily=consolas;fillColor=#d5e8d4;strokeColor=#00994D;fontColor=#00994D;" vertex="1" parent="1">
          <mxGeometry x="240" y="40" width="40" height="40" as="geometry" />
        </mxCell>
        <mxCell id="2EYARn85MEnVgVYHFnFr-7" value="1" style="ellipse;whiteSpace=wrap;html=1;aspect=fixed;fontSize=16;fontFamily=Aptos;" vertex="1" parent="1">
          <mxGeometry x="800" y="770" width="40" height="40" as="geometry" />
        </mxCell>
        <mxCell id="2EYARn85MEnVgVYHFnFr-10" value="1" style="ellipse;whiteSpace=wrap;html=1;aspect=fixed;fontSize=16;fontFamily=Aptos;" vertex="1" parent="1">
          <mxGeometry x="620" y="770" width="40" height="40" as="geometry" />
        </mxCell>
        <mxCell id="2EYARn85MEnVgVYHFnFr-11" value="10" style="ellipse;whiteSpace=wrap;html=1;aspect=fixed;fontSize=16;fontFamily=consolas;fillColor=#f8cecc;strokeColor=#FF3333;fontColor=#FF3333;" vertex="1" parent="1">
          <mxGeometry x="660" y="40" width="40" height="40" as="geometry" />
        </mxCell>
        <mxCell id="2EYARn85MEnVgVYHFnFr-13" value="" style="endArrow=classic;startArrow=classic;html=1;rounded=0;strokeColor=#00994D;strokeWidth=2;entryX=0;entryY=0.5;entryDx=0;entryDy=0;exitX=1;exitY=0.5;exitDx=0;exitDy=0;" edge="1" parent="1">
          <mxGeometry width="50" height="50" relative="1" as="geometry">
            <mxPoint x="160" y="30" as="sourcePoint" />
            <mxPoint x="240" y="30" as="targetPoint" />
          </mxGeometry>
        </mxCell>
        <mxCell id="2EYARn85MEnVgVYHFnFr-15" value="" style="endArrow=classic;startArrow=classic;html=1;rounded=0;strokeColor=#00994D;strokeWidth=2;" edge="1" parent="1">
          <mxGeometry width="50" height="50" relative="1" as="geometry">
            <mxPoint x="280" y="90" as="sourcePoint" />
            <mxPoint x="360" y="90" as="targetPoint" />
          </mxGeometry>
        </mxCell>
        <mxCell id="2EYARn85MEnVgVYHFnFr-16" value="" style="endArrow=classic;startArrow=classic;html=1;rounded=0;strokeColor=#00994D;strokeWidth=2;" edge="1" parent="1">
          <mxGeometry width="50" height="50" relative="1" as="geometry">
            <mxPoint x="280" y="30" as="sourcePoint" />
            <mxPoint x="660" y="30" as="targetPoint" />
          </mxGeometry>
        </mxCell>
        <mxCell id="2EYARn85MEnVgVYHFnFr-17" value="Đã có người ngồi" style="text;html=1;align=center;verticalAlign=middle;whiteSpace=wrap;rounded=0;fontSize=14;fontColor=#FF3333;fontFamily=Noto Sans;fontSource=https%3A%2F%2Ffonts.googleapis.com%2Fcss%3Ffamily%3DNoto%2BSans;" vertex="1" parent="1">
          <mxGeometry x="100" y="100" width="80" height="30" as="geometry" />
        </mxCell>
        <mxCell id="2EYARn85MEnVgVYHFnFr-18" value="Đã có người ngồi" style="text;html=1;align=center;verticalAlign=middle;whiteSpace=wrap;rounded=0;fontSize=14;fontColor=#FF3333;fontFamily=Noto Sans;fontSource=https%3A%2F%2Ffonts.googleapis.com%2Fcss%3Ffamily%3DNoto%2BSans;" vertex="1" parent="1">
          <mxGeometry x="340" y="100" width="80" height="30" as="geometry" />
        </mxCell>
        <mxCell id="2EYARn85MEnVgVYHFnFr-19" value="Đã có người ngồi" style="text;html=1;align=center;verticalAlign=middle;whiteSpace=wrap;rounded=0;fontSize=14;fontColor=#FF3333;fontFamily=Noto Sans;fontSource=https%3A%2F%2Ffonts.googleapis.com%2Fcss%3Ffamily%3DNoto%2BSans;" vertex="1" parent="1">
          <mxGeometry x="640" y="100" width="80" height="30" as="geometry" />
        </mxCell>
        <mxCell id="2EYARn85MEnVgVYHFnFr-20" value="Ghế c đang xét" style="text;html=1;align=center;verticalAlign=middle;whiteSpace=wrap;rounded=0;fontSize=14;fontColor=#00994D;fontFamily=Noto Sans;fontSource=https%3A%2F%2Ffonts.googleapis.com%2Fcss%3Ffamily%3DNoto%2BSans;" vertex="1" parent="1">
          <mxGeometry x="225" y="100" width="70" height="30" as="geometry" />
        </mxCell>
        <mxCell id="2EYARn85MEnVgVYHFnFr-22" value="Xét ghế c = 3, tìm xem ghế 3 gần với ghế nào nhất." style="text;html=1;align=left;verticalAlign=middle;whiteSpace=wrap;rounded=0;fontSize=14;fontColor=#00994D;fontFamily=consolas;" vertex="1" parent="1">
          <mxGeometry x="120" y="140" width="470" height="30" as="geometry" />
        </mxCell>
        <mxCell id="2EYARn85MEnVgVYHFnFr-23" value="1" style="ellipse;whiteSpace=wrap;html=1;aspect=fixed;fontSize=16;fontFamily=consolas;fillColor=#f8cecc;strokeColor=#FF3333;fontColor=#FF3333;" vertex="1" parent="1">
          <mxGeometry x="120" y="280" width="40" height="40" as="geometry" />
        </mxCell>
        <mxCell id="2EYARn85MEnVgVYHFnFr-24" value="5" style="ellipse;whiteSpace=wrap;html=1;aspect=fixed;fontSize=16;fontFamily=consolas;fillColor=#f8cecc;strokeColor=#FF3333;fontColor=#FF3333;" vertex="1" parent="1">
          <mxGeometry x="360" y="280" width="40" height="40" as="geometry" />
        </mxCell>
        <mxCell id="2EYARn85MEnVgVYHFnFr-25" value="3" style="ellipse;whiteSpace=wrap;html=1;aspect=fixed;fontSize=16;fontFamily=consolas;fillColor=#d5e8d4;strokeColor=#00994D;fontColor=#00994D;" vertex="1" parent="1">
          <mxGeometry x="240" y="280" width="40" height="40" as="geometry" />
        </mxCell>
        <mxCell id="2EYARn85MEnVgVYHFnFr-26" value="10" style="ellipse;whiteSpace=wrap;html=1;aspect=fixed;fontSize=16;fontFamily=consolas;fillColor=#f8cecc;strokeColor=#FF3333;fontColor=#FF3333;" vertex="1" parent="1">
          <mxGeometry x="660" y="280" width="40" height="40" as="geometry" />
        </mxCell>
        <mxCell id="2EYARn85MEnVgVYHFnFr-27" value="" style="endArrow=classic;startArrow=classic;html=1;rounded=0;strokeColor=#00994D;strokeWidth=2;entryX=0;entryY=0.5;entryDx=0;entryDy=0;exitX=1;exitY=0.5;exitDx=0;exitDy=0;" edge="1" parent="1" source="2EYARn85MEnVgVYHFnFr-23" target="2EYARn85MEnVgVYHFnFr-25">
          <mxGeometry width="50" height="50" relative="1" as="geometry">
            <mxPoint x="170" y="299.75" as="sourcePoint" />
            <mxPoint x="270" y="300.25" as="targetPoint" />
          </mxGeometry>
        </mxCell>
        <mxCell id="2EYARn85MEnVgVYHFnFr-28" value="" style="endArrow=classic;startArrow=classic;html=1;rounded=0;strokeColor=#00994D;strokeWidth=2;exitX=1;exitY=0.5;exitDx=0;exitDy=0;entryX=0;entryY=0.5;entryDx=0;entryDy=0;" edge="1" parent="1" source="2EYARn85MEnVgVYHFnFr-24" target="2EYARn85MEnVgVYHFnFr-37">
          <mxGeometry width="50" height="50" relative="1" as="geometry">
            <mxPoint x="400" y="330" as="sourcePoint" />
            <mxPoint x="480" y="330" as="targetPoint" />
          </mxGeometry>
        </mxCell>
        <mxCell id="2EYARn85MEnVgVYHFnFr-29" value="" style="endArrow=classic;startArrow=classic;html=1;rounded=0;strokeColor=#00994D;strokeWidth=2;exitX=1;exitY=0.5;exitDx=0;exitDy=0;entryX=0;entryY=0.5;entryDx=0;entryDy=0;" edge="1" parent="1" source="2EYARn85MEnVgVYHFnFr-39" target="2EYARn85MEnVgVYHFnFr-26">
          <mxGeometry width="50" height="50" relative="1" as="geometry">
            <mxPoint x="580" y="330" as="sourcePoint" />
            <mxPoint x="660" y="330" as="targetPoint" />
          </mxGeometry>
        </mxCell>
        <mxCell id="2EYARn85MEnVgVYHFnFr-30" value="Đã có người ngồi" style="text;html=1;align=center;verticalAlign=middle;whiteSpace=wrap;rounded=0;fontSize=14;fontColor=#FF3333;fontFamily=Noto Sans;fontSource=https%3A%2F%2Ffonts.googleapis.com%2Fcss%3Ffamily%3DNoto%2BSans;" vertex="1" parent="1">
          <mxGeometry x="100" y="330" width="80" height="30" as="geometry" />
        </mxCell>
        <mxCell id="2EYARn85MEnVgVYHFnFr-31" value="Đã có người ngồi" style="text;html=1;align=center;verticalAlign=middle;whiteSpace=wrap;rounded=0;fontSize=14;fontColor=#FF3333;fontFamily=Noto Sans;fontSource=https%3A%2F%2Ffonts.googleapis.com%2Fcss%3Ffamily%3DNoto%2BSans;" vertex="1" parent="1">
          <mxGeometry x="340" y="330" width="80" height="30" as="geometry" />
        </mxCell>
        <mxCell id="2EYARn85MEnVgVYHFnFr-32" value="Đã có người ngồi" style="text;html=1;align=center;verticalAlign=middle;whiteSpace=wrap;rounded=0;fontSize=14;fontColor=#FF3333;fontFamily=Noto Sans;fontSource=https%3A%2F%2Ffonts.googleapis.com%2Fcss%3Ffamily%3DNoto%2BSans;" vertex="1" parent="1">
          <mxGeometry x="640" y="330" width="80" height="30" as="geometry" />
        </mxCell>
        <mxCell id="2EYARn85MEnVgVYHFnFr-35" value="Các ghế 3, 7 và 8 đều thoả điều kiện:&lt;div&gt;- Gần nhất so với ghế đã có người ngồi&lt;/div&gt;&lt;div&gt;- Khoảng cách là lớn nhất&lt;br&gt;&lt;div&gt;&lt;br&gt;&lt;/div&gt;&lt;div&gt;Ta chọn ghế c = 3 vì 3 là số thứ tự nhỏ nhất.&lt;/div&gt;&lt;/div&gt;" style="text;html=1;align=left;verticalAlign=middle;whiteSpace=wrap;rounded=0;fontSize=14;fontColor=#00994D;fontFamily=consolas;" vertex="1" parent="1">
          <mxGeometry x="120" y="370" width="600" height="100" as="geometry" />
        </mxCell>
        <mxCell id="2EYARn85MEnVgVYHFnFr-37" value="7" style="ellipse;whiteSpace=wrap;html=1;aspect=fixed;fontSize=16;fontFamily=consolas;fillColor=#d5e8d4;strokeColor=#00994D;fontColor=#00994D;" vertex="1" parent="1">
          <mxGeometry x="480" y="280" width="40" height="40" as="geometry" />
        </mxCell>
        <mxCell id="2EYARn85MEnVgVYHFnFr-39" value="8" style="ellipse;whiteSpace=wrap;html=1;aspect=fixed;fontSize=16;fontFamily=consolas;fillColor=#d5e8d4;strokeColor=#00994D;fontColor=#00994D;" vertex="1" parent="1">
          <mxGeometry x="540" y="280" width="40" height="40" as="geometry" />
        </mxCell>
        <mxCell id="2EYARn85MEnVgVYHFnFr-43" value="4" style="ellipse;whiteSpace=wrap;html=1;aspect=fixed;fontSize=16;fontFamily=consolas;fillColor=#f5f5f5;strokeColor=#B3B3B3;fontColor=#B3B3B3;" vertex="1" parent="1">
          <mxGeometry x="300" y="40" width="40" height="40" as="geometry" />
        </mxCell>
        <mxCell id="2EYARn85MEnVgVYHFnFr-47" value="7" style="ellipse;whiteSpace=wrap;html=1;aspect=fixed;fontSize=16;fontFamily=consolas;fillColor=#f5f5f5;strokeColor=#B3B3B3;fontColor=#B3B3B3;" vertex="1" parent="1">
          <mxGeometry x="480" y="40" width="40" height="40" as="geometry" />
        </mxCell>
        <mxCell id="2EYARn85MEnVgVYHFnFr-49" value="9" style="ellipse;whiteSpace=wrap;html=1;aspect=fixed;fontSize=16;fontFamily=consolas;fillColor=#f5f5f5;strokeColor=#B3B3B3;fontColor=#B3B3B3;" vertex="1" parent="1">
          <mxGeometry x="600" y="40" width="40" height="40" as="geometry" />
        </mxCell>
        <mxCell id="2EYARn85MEnVgVYHFnFr-50" value="8" style="ellipse;whiteSpace=wrap;html=1;aspect=fixed;fontSize=16;fontFamily=consolas;fillColor=#f5f5f5;strokeColor=#B3B3B3;fontColor=#B3B3B3;" vertex="1" parent="1">
          <mxGeometry x="540" y="40" width="40" height="40" as="geometry" />
        </mxCell>
        <mxCell id="2EYARn85MEnVgVYHFnFr-51" value="6" style="ellipse;whiteSpace=wrap;html=1;aspect=fixed;fontSize=16;fontFamily=consolas;fillColor=#f5f5f5;strokeColor=#B3B3B3;fontColor=#B3B3B3;" vertex="1" parent="1">
          <mxGeometry x="420" y="40" width="40" height="40" as="geometry" />
        </mxCell>
        <mxCell id="2EYARn85MEnVgVYHFnFr-52" value="2" style="ellipse;whiteSpace=wrap;html=1;aspect=fixed;fontSize=16;fontFamily=consolas;fillColor=#f5f5f5;strokeColor=#B3B3B3;fontColor=#B3B3B3;" vertex="1" parent="1">
          <mxGeometry x="180" y="40" width="40" height="40" as="geometry" />
        </mxCell>
      </root>
    </mxGraphModel>
  </diagram>
</mxfile>
